<svg width="24" height="24" viewBox="0 0 24 24" fill="none" xmlns="http://www.w3.org/2000/svg">
<path d="M3.20708 10.7312C3.16236 10.7659 3.08784 10.9299 3.04809 11.0939C2.87419 11.7596 2.40716 12.2614 1.75133 12.485C1.44329 12.5894 1.33398 12.6887 1.33398 12.8576C1.33398 13.0266 1.44329 13.121 1.76127 13.2253C2.38729 13.429 2.87419 13.9408 3.02822 14.5718C3.18224 15.168 3.57971 15.2176 3.74367 14.6612C3.95731 13.9358 4.35975 13.4787 4.98577 13.2502C5.35344 13.116 5.45777 13.0266 5.45777 12.8576C5.45777 12.6738 5.36834 12.5844 5.09011 12.49C4.40944 12.2664 3.92253 11.7497 3.76354 11.0889C3.67908 10.7262 3.43066 10.5672 3.20708 10.7312Z" fill="#FFA552"/>
<path d="M4.89934 5.14411C4.82482 5.19379 4.79004 5.26832 4.79004 5.37763C4.79004 5.52171 4.90928 5.65586 5.84831 6.59489C6.78238 7.52895 6.92149 7.64819 7.06061 7.64819C7.25438 7.64819 7.40343 7.46436 7.35374 7.29047C7.314 7.12651 5.23223 5.06461 5.10802 5.06461C5.05337 5.06461 4.95897 5.09939 4.89934 5.14411Z" fill="black"/>
<path d="M17.4686 6.12289C16.5147 7.07683 16.4004 7.206 16.4004 7.35009C16.4004 7.54386 16.5196 7.64819 16.7333 7.64819C16.8625 7.64819 17.0264 7.50411 17.8859 6.64457C18.4424 6.09308 18.9194 5.58133 18.9542 5.50184C19.0038 5.37763 18.9989 5.33788 18.9144 5.2236C18.8598 5.14908 18.7554 5.08449 18.6759 5.07455C18.5567 5.05965 18.4076 5.18386 17.4686 6.12289Z" fill="black"/>
<path d="M10.8659 6.62466C7.99917 7.16621 5.96709 9.8591 6.27016 12.701C6.41921 14.1021 6.91605 15.1554 7.90974 16.1591C9.7878 18.062 12.7589 18.3601 15.0046 16.8596C15.8344 16.3131 16.5448 15.4784 16.987 14.5394C17.7224 12.9842 17.6727 11.0714 16.8529 9.53615C16.5697 9.0095 16.2368 8.57228 15.7449 8.10028C15.0444 7.42954 14.2147 6.96251 13.2955 6.71906C12.898 6.61472 12.6745 6.58988 12.0186 6.57497C11.492 6.56503 11.1044 6.57994 10.8659 6.62466ZM13.0968 7.34011C14.006 7.58356 14.7463 8.01085 15.3971 8.66668C16.043 9.3076 16.4504 10.0181 16.7038 10.9174C16.8231 11.3546 16.838 11.4788 16.833 12.1943C16.828 12.8401 16.8082 13.0588 16.7237 13.3718C16.4157 14.4996 15.7946 15.4486 14.9202 16.1193C13.4346 17.267 11.4721 17.4856 9.77786 16.6956C8.31715 16.01 7.31353 14.7232 6.97071 13.0886C6.93593 12.9246 6.90612 12.4924 6.91109 12.1197C6.91605 11.5732 6.93593 11.3596 7.04026 10.972C7.53214 9.09396 8.97298 7.7028 10.851 7.29539C11.4224 7.17118 12.5403 7.19106 13.0968 7.34011Z" fill="black"/>
<path d="M9.27095 9.76475C9.12686 9.83431 8.94303 9.97343 8.86353 10.0728C8.72939 10.2368 8.56543 10.6392 8.56543 10.8131C8.56543 10.9274 8.7592 11.0764 8.90328 11.0764C9.07221 11.0764 9.17655 10.9721 9.25604 10.7187C9.44484 10.1324 10.2149 10.1274 10.4286 10.7137C10.5329 10.992 10.6224 11.0764 10.8012 11.0764C11.2384 11.0764 11.1788 10.3908 10.7019 9.96846C10.4236 9.7101 10.2249 9.63557 9.84231 9.63557C9.60383 9.63557 9.46471 9.66538 9.27095 9.76475Z" fill="black"/>
<path d="M13.3601 9.75479C13.062 9.8939 12.8781 10.0827 12.744 10.3808C12.6198 10.6491 12.6148 10.818 12.7192 10.9671C12.8334 11.131 13.1315 11.1062 13.216 10.9273C13.2458 10.8578 13.3104 10.7236 13.3551 10.6243C13.4595 10.4106 13.6632 10.2814 13.9066 10.2814C14.1501 10.2814 14.3538 10.4106 14.4581 10.6243C14.5028 10.7236 14.5674 10.8578 14.5972 10.9273C14.6817 11.1062 14.9798 11.131 15.0941 10.9671C15.1388 10.9075 15.1736 10.7982 15.1736 10.7286C15.1736 10.5497 14.9649 10.1324 14.796 9.9734C14.4233 9.62561 13.8221 9.53618 13.3601 9.75479Z" fill="black"/>
<path d="M9.8329 12.9396C9.68882 13.0787 9.68882 13.1036 9.77825 13.4364C10.0068 14.291 10.6924 14.917 11.5569 15.0611C12.6599 15.24 13.758 14.4699 13.9915 13.342C14.0511 13.0539 14.0511 13.0539 13.9169 12.9346C13.8374 12.87 13.748 12.8154 13.7132 12.8154C13.6089 12.8154 13.3853 13.0141 13.3853 13.1085C13.3853 13.3222 13.2065 13.6849 12.9829 13.9283C12.4711 14.4897 11.6712 14.599 11.0651 14.1916C10.7421 13.973 10.5235 13.67 10.4043 13.2576C10.3198 12.9793 10.2751 12.8998 10.1757 12.8651C9.99686 12.7955 9.96705 12.8005 9.8329 12.9396Z" fill="black"/>
<path d="M18.532 16.1141C18.4625 16.1786 18.4078 16.283 18.4078 16.3476C18.4078 16.5215 18.1395 17.0481 17.9358 17.2767C17.7122 17.5251 17.4886 17.6642 17.0961 17.8083C16.5248 18.012 16.5248 18.3498 17.0912 18.5486C17.4588 18.6728 17.8017 18.9063 18.0054 19.1647C18.1892 19.3932 18.4078 19.8453 18.4078 19.9944C18.4078 20.1633 18.5966 20.3621 18.7506 20.3621C18.9345 20.3621 19.0239 20.2478 19.1282 19.8901C19.317 19.2193 19.7393 18.7821 20.42 18.5486C20.6386 18.4741 20.733 18.4095 20.7827 18.3151C20.8672 18.1312 20.7926 17.9573 20.584 17.8828C19.8934 17.6245 19.486 17.2965 19.2574 16.8146C19.1779 16.6457 19.0984 16.4271 19.0835 16.3277C19.0239 16.0048 18.7457 15.8954 18.532 16.1141Z" fill="#FFA552"/>
<path d="M11.4963 3.82831C11.4928 5.13874 11.5069 5.33548 11.6052 5.43385C11.7387 5.56735 11.9249 5.56383 12.0619 5.42682C12.1463 5.3425 12.1638 5.09307 12.1603 3.83183C12.1568 2.23332 12.1392 2.14549 11.8301 2.14549C11.5209 2.14549 11.4998 2.23683 11.4963 3.82831Z" fill="black"/>
</svg>
