<svg width="24" height="24" viewBox="0 0 24 24" fill="none" xmlns="http://www.w3.org/2000/svg">
<g clip-path="url(#clip0_6001_924)">
<path d="M14 19.6665C14.1841 19.6665 14.3333 19.8158 14.3333 19.9998C14.3333 20.1839 14.1841 20.3331 14 20.3331H10.6667C10.4826 20.3331 10.3333 20.1839 10.3333 19.9998C10.3334 19.8158 10.4826 19.6665 10.6667 19.6665H14ZM16.6667 17.9998C16.8507 17.9998 16.9999 18.1491 17 18.3331C17 18.5173 16.8507 18.6665 16.6667 18.6665H8C7.81591 18.6665 7.66667 18.5173 7.66667 18.3331C7.66675 18.1491 7.81595 17.9998 8 17.9998H16.6667ZM12.4935 4.00761C12.5523 4.01808 12.6169 4.04072 12.6563 4.05384L15.9369 5.14758C16.0239 5.17662 16.1227 5.20899 16.1959 5.24459C16.2411 5.26654 16.4562 5.37043 16.4564 5.62024C16.4564 5.87018 16.2412 5.97453 16.1959 5.99654C16.1227 6.03212 16.0239 6.06453 15.9369 6.09355L12.6667 7.18339V8.67493C16.0095 8.84826 18.6666 11.6139 18.6667 14.9998C18.6667 15.1839 18.5174 15.3331 18.3333 15.3331C18.1493 15.3331 18 15.1839 18 14.9998C17.9999 11.8703 15.4629 9.33313 12.3333 9.33313C9.20376 9.33313 6.66673 11.8703 6.66667 14.9998C6.66667 15.1839 6.51743 15.3331 6.33333 15.3331C6.14924 15.3331 6 15.1839 6 14.9998C6.00007 11.6139 8.65718 8.84826 12 8.67493V4.52714C12 4.48558 11.9992 4.41696 12.0078 4.35787C12.0177 4.29064 12.049 4.16379 12.1725 4.07467L12.2194 4.04602C12.3281 3.98837 12.435 3.99723 12.4935 4.00761ZM12.6667 6.48092L15.2474 5.62024L12.6667 4.75956V6.48092Z" fill="black"/>
<path d="M12.0599 11.9783C11.9828 12.0781 11.7876 12.3822 11.6197 12.6544L11.3157 13.1446L10.7439 13.2898C9.76364 13.5484 9.75911 13.5484 9.69558 13.6937C9.6275 13.8661 9.64112 13.8888 10.1948 14.5468L10.6531 15.0824L10.6259 15.5815C10.6123 15.8538 10.5896 16.2168 10.576 16.3848C10.5533 16.648 10.5624 16.6979 10.644 16.7796C10.6985 16.834 10.7938 16.8749 10.8573 16.8749C10.9209 16.8749 11.2794 16.7478 11.6515 16.5935L12.3367 16.3167L13.022 16.598C13.4032 16.7478 13.7663 16.8749 13.8343 16.8749C13.916 16.8749 13.9841 16.834 14.034 16.7614C14.0975 16.6616 14.1021 16.5663 14.0613 15.872L14.0113 15.0914L14.5105 14.5014C15.2502 13.6256 15.2502 13.621 13.8253 13.2671L13.3487 13.1446L12.9857 12.5592C12.5501 11.8512 12.5001 11.7922 12.3277 11.7922C12.2233 11.7922 12.1643 11.833 12.0599 11.9783Z" fill="#FFA552"/>
</g>
<defs>
<clipPath id="clip0_6001_924">
<rect width="24" height="24" fill="white"/>
</clipPath>
</defs>
</svg>
