<svg width="25" height="25" viewBox="0 0 25 25" fill="none" xmlns="http://www.w3.org/2000/svg">
<path fill-rule="evenodd" clip-rule="evenodd" d="M12.5021 14.7796C10.556 14.7785 8.65612 15.391 7.05773 16.5347C5.45934 17.6784 4.23895 19.2986 3.56045 21.1777C3.31884 21.8422 3.83441 22.5 4.52256 22.5H20.4794C21.1676 22.5 21.681 21.8422 21.4394 21.1777C20.7611 19.2993 19.5414 17.6796 17.9439 16.536C16.3463 15.3923 14.4475 14.7794 12.5021 14.7796ZM17.2652 7.4125C17.2652 8.71537 16.7628 9.96488 15.8685 10.8862C14.9743 11.8074 13.7614 12.325 12.4967 12.325C11.232 12.325 10.0191 11.8074 9.12484 10.8862C8.23057 9.96488 7.72817 8.71537 7.72817 7.4125C7.72817 6.10962 8.23057 4.86011 9.12484 3.93884C10.0191 3.01756 11.232 2.5 12.4967 2.5C13.7614 2.5 14.9743 3.01756 15.8685 3.93884C16.7628 4.86011 17.2652 6.10962 17.2652 7.4125Z" fill="#C64508"/>
</svg>
