<svg width="25" height="25" viewBox="0 0 25 25" fill="none" xmlns="http://www.w3.org/2000/svg">
<path d="M8.50456 7.47464C7.46842 6.83796 6.14351 6.59933 5.04472 7.05491C3.02694 7.89344 3.06508 10.6345 4.69874 11.8522C5.04926 12.1135 5.47516 12.3285 5.6486 12.7398C5.82386 13.1557 5.68129 13.6405 5.47879 14.0424C5.14915 14.697 4.89307 15.3053 4.69964 16.0184C4.28283 17.5521 4.09031 19.8894 5.65133 21.2477C6.74286 22.1966 8.82148 22.5871 10.9037 20.9157C11.8727 20.1385 12.6763 18.6293 12.6999 18.6774C13.2802 19.8725 14.241 21.4269 16.2579 22.2268C18.2829 23.0295 20.5186 22.8106 21.7155 20.6186C22.2976 19.5527 22.046 18.4567 21.3886 17.5153C20.9118 16.8324 20.3688 16.2024 19.8911 15.5213C19.4843 14.9422 18.8868 14.3225 18.7842 13.5858C18.6997 12.9756 18.983 12.3747 19.3299 11.8748C20.1045 10.758 22.0815 9.30263 21.2878 7.41333C20.0573 4.48555 17.0779 4.91189 16.079 5.47405C16.0526 5.48914 14.8594 1.91241 11.4867 2.58399C8.0832 3.26123 8.53543 7.49257 8.50456 7.4737V7.47464Z" fill="#BDBDBD"/>
<path d="M8.50456 7.47464C7.46842 6.83796 6.14351 6.59933 5.04472 7.05491C3.02694 7.89344 3.06508 10.6345 4.69874 11.8522C5.04926 12.1135 5.47516 12.3285 5.6486 12.7398C5.82386 13.1557 5.68129 13.6405 5.47879 14.0424C5.14915 14.697 4.89307 15.3053 4.69964 16.0184C4.28283 17.5521 4.09031 19.8894 5.65133 21.2477C6.74286 22.1966 8.82148 22.5871 10.9037 20.9157C11.8727 20.1385 12.6763 18.6293 12.6999 18.6774C13.2802 19.8725 14.241 21.4269 16.2579 22.2268C18.2829 23.0295 20.5186 22.8106 21.7155 20.6186C22.2976 19.5527 22.046 18.4567 21.3886 17.5153C20.9118 16.8324 20.3688 16.2024 19.8911 15.5213C19.4843 14.9422 18.8868 14.3225 18.7842 13.5858C18.6997 12.9756 18.983 12.3747 19.3299 11.8748C20.1045 10.758 22.0815 9.30263 21.2878 7.41333C20.0573 4.48555 17.0779 4.91189 16.079 5.47405C16.0526 5.48914 14.8594 1.91241 11.4867 2.58399C8.0832 3.26123 8.53543 7.49257 8.50456 7.4737V7.47464Z" fill="#BDBDBD"/>
<path d="M9.94922 10.5625V12.981V10.5625Z" fill="white"/>
<path d="M9.94922 10.5625V12.981" stroke="#FAFAFA" stroke-width="1.5" stroke-linecap="round"/>
<path d="M14.7871 10.5625V12.981V10.5625Z" fill="white"/>
<path d="M14.7871 10.5625V12.981" stroke="#FAFAFA" stroke-width="1.5" stroke-linecap="round"/>
</svg>
