<svg width="25" height="25" viewBox="0 0 25 25" fill="none" xmlns="http://www.w3.org/2000/svg">
<path d="M3.964 17.328C2.5 16.157 2.5 15.271 2.5 11.5C2.5 7.729 2.5 5.843 3.964 4.672C5.43 3.5 7.786 3.5 12.5 3.5C17.214 3.5 19.571 3.5 21.035 4.672C22.499 5.844 22.5 7.729 22.5 11.5C22.5 15.271 22.5 16.157 21.035 17.328C19.572 18.5 17.214 18.5 12.5 18.5C9.99 18.5 8.7 20.238 6.5 21.5V18.288C5.406 18.125 4.601 17.838 3.964 17.328Z" fill="#C64508"/>
<path d="M9.5 11.5L15.5 11.5L9.5 11.5Z" fill="#C64508"/>
<path d="M9.5 11.5L15.5 11.5" stroke="#FAFAFA" stroke-width="1.5" stroke-linecap="round"/>
</svg>
