<svg width="104" height="27" viewBox="0 0 104 27" fill="none" xmlns="http://www.w3.org/2000/svg">
<g clip-path="url(#clip0_4169_1146)">
<path d="M87.7944 9.38965C87.2208 9.38965 86.7291 9.60667 86.3887 10.0152C86.061 10.3982 85.8971 10.8769 85.8971 11.4322V19.7492C85.8971 20.4003 85.7584 20.9365 85.4747 21.396C85.1848 21.862 84.8129 22.2194 84.3464 22.4748C83.4513 22.9662 82.3609 23.0109 81.4279 22.4748C80.9867 22.2194 80.64 21.8748 80.369 21.4088C80.1042 20.9556 79.9656 20.3939 79.9656 19.7428V11.4258C79.9656 10.8577 79.7512 10.3471 79.3478 9.96412C78.9507 9.58114 78.4843 9.38965 77.9737 9.38965C77.3812 9.38965 76.8832 9.58752 76.4924 9.9705C76.1016 10.3535 75.8936 10.8577 75.8936 11.4258V19.7428C75.8936 21.1216 76.1898 22.3599 76.776 23.4322C77.3686 24.5109 78.1943 25.3662 79.2344 25.9726C80.2744 26.579 81.4784 26.8854 82.8273 26.8854C84.1762 26.8854 85.3802 26.579 86.4139 25.9726C87.4477 25.3662 88.2735 24.5109 88.8597 23.4322C89.4459 22.3599 89.7421 21.1216 89.7421 19.7428V11.4258C89.7421 10.8641 89.5657 10.3854 89.2127 9.99603C88.8534 9.60029 88.3617 9.38965 87.7944 9.38965Z" fill="#FFA552"/>
<path d="M95.3337 9.69591C94.6907 9.34484 93.8965 9.46612 93.3796 9.98314L93.367 9.99591C92.9888 10.3789 92.7871 10.8831 92.7871 11.4448V24.7278C92.7871 25.2895 92.9636 25.7682 93.3166 26.1576C93.6759 26.5534 94.1613 26.7704 94.7097 26.7704C95.258 26.7704 95.7686 26.5597 96.1279 26.1576C96.4809 25.7682 96.6574 25.2895 96.6574 24.7278V19.6406L103.295 16.3087C104.215 15.8491 104.234 14.5278 103.333 14.0427L95.3337 9.69591Z" fill="#FFA552"/>
<path d="M12.2349 22.2828C11.8 22.219 11.3651 22.2892 10.9112 22.5062C10.5897 22.6722 10.2557 22.7935 9.90896 22.8573C8.87521 23.0488 7.81623 22.9722 6.94006 22.6658C6.39796 22.4743 5.9189 22.1807 5.51549 21.7849C5.11207 21.3892 4.7969 20.8913 4.56367 20.2913C4.33044 19.6786 4.21068 18.9381 4.21068 18.0892C4.21068 17.3679 4.31784 16.7105 4.52585 16.1232C4.72756 15.5552 5.03012 15.0509 5.42093 14.636C5.81175 14.2211 6.29081 13.902 6.84551 13.6722C7.41281 13.4424 8.06837 13.3275 8.79956 13.3275C9.19038 13.3275 9.56858 13.3658 9.92157 13.4488C10.2746 13.5318 10.6213 13.6466 10.9364 13.7935C11.3587 13.9977 11.7874 14.0807 12.2097 14.036C12.7014 13.9849 13.1174 13.736 13.3948 13.3466C13.7982 12.8552 13.9558 12.2743 13.8612 11.6679C13.7603 11.036 13.4074 10.5509 12.8337 10.2573C12.2349 9.94452 11.5794 9.70197 10.9049 9.54239C10.2241 9.37644 9.51815 9.29346 8.80587 9.29346C7.55149 9.29346 6.37275 9.51686 5.30117 9.9509C4.22959 10.3849 3.28408 11.0041 2.49615 11.7892C1.70192 12.5743 1.08419 13.519 0.649251 14.5913C0.220619 15.6573 0 16.8381 0 18.0956C0 19.5381 0.23953 20.8339 0.705982 21.9445C1.17874 23.0615 1.8406 24.0062 2.67265 24.753C3.49209 25.4935 4.44391 26.0615 5.49027 26.4381C6.53033 26.8147 7.64604 27.0062 8.79956 27.0062C9.27232 27.0062 9.73877 26.9679 10.1926 26.8977C10.6465 26.8211 11.094 26.719 11.5352 26.5786C11.9828 26.4381 12.424 26.2594 12.8337 26.0488C13.3884 25.7807 13.7477 25.3211 13.8675 24.7211C13.9495 24.3126 13.9431 23.6807 13.42 23.0169C13.1111 22.6147 12.7014 22.3658 12.2286 22.2956L12.2349 22.2828Z" fill="#FFA552"/>
<path d="M29.3172 23.3172C29.2478 23.2789 29.2289 23.2406 29.2163 23.2087C29.1659 23.0618 29.1344 22.8704 29.1154 22.6342C29.0902 22.3278 29.0461 21.9767 28.9894 21.6257C28.9516 21.1406 28.8381 20.6746 28.6553 20.2533C28.4725 19.8321 28.2141 19.4363 27.8863 19.0725C27.8548 19.0406 27.8296 19.0087 27.798 18.9767C27.9241 18.8618 28.0439 18.7406 28.1573 18.6129C28.6049 18.1214 28.9642 17.5597 29.2226 16.9406C29.4874 16.3087 29.626 15.6512 29.626 14.9874C29.626 13.915 29.3865 12.9448 28.9074 12.1087C28.4347 11.2725 27.798 10.6087 27.0164 10.1363C26.2285 9.65759 25.3775 9.41504 24.4761 9.41504H17.9395C17.3848 9.41504 16.8868 9.61929 16.5086 10.0023C16.1304 10.3853 15.9287 10.8895 15.9287 11.4512V24.7342C15.9287 25.3278 16.1808 25.8448 16.6662 26.2342C17.1138 26.5916 17.6243 26.7767 18.1916 26.7767C18.7589 26.7767 19.238 26.5533 19.5658 26.1321C19.8683 25.7491 20.0196 25.2767 20.0196 24.7342V20.9172H23.6315C23.9088 20.9172 24.1484 20.9491 24.3438 21.0129C24.5077 21.0704 24.64 21.1406 24.7409 21.2363C24.8417 21.3384 24.9237 21.4533 24.9804 21.5938C25.0371 21.7406 25.0687 21.8938 25.0687 22.0725C25.0687 22.9406 25.1569 23.6427 25.3334 24.2172C25.5162 24.8044 25.7683 25.2895 26.0835 25.647C26.3861 25.998 26.6949 26.2661 27.029 26.464C27.2496 26.5853 27.5144 26.681 27.8422 26.7448C28.0124 26.7831 28.1825 26.7959 28.3527 26.7959C28.5229 26.7959 28.6931 26.7767 28.8633 26.7448C29.2604 26.6618 29.5945 26.464 29.8403 26.164C30.2312 25.7172 30.3761 25.181 30.2438 24.6001C30.124 24.0576 29.8025 23.6172 29.3046 23.3172H29.3172ZM25.4153 15.0576C25.4153 15.498 25.346 15.9001 25.2073 16.264C25.075 16.615 24.9111 16.8831 24.722 17.0682C24.5896 17.2023 24.4698 17.2661 24.369 17.2661H20.0322V13.3278H24.369C24.5707 13.3278 24.7913 13.4746 25.0245 13.7682C25.2893 14.1065 25.4217 14.5278 25.4217 15.0576H25.4153Z" fill="#FFA552"/>
<path d="M42.0439 13.3279C42.5923 13.3279 43.0651 13.1555 43.4496 12.8109C43.8467 12.4534 44.061 11.9683 44.061 11.4002C44.061 10.8321 43.853 10.3343 43.4685 9.95766C43.084 9.58745 42.6049 9.40234 42.0502 9.40234H34.4483C33.8936 9.40234 33.3956 9.6066 33.0174 9.98958C32.6392 10.3726 32.4375 10.8768 32.4375 11.4385V24.7215C32.4375 25.2832 32.6392 25.7875 33.0174 26.1704C33.3956 26.5534 33.8936 26.7577 34.4483 26.7577H42.0502C42.6049 26.7577 43.0777 26.5789 43.4622 26.2215C43.853 25.8577 44.0673 25.3662 44.0673 24.8109C44.0673 24.2938 43.8656 23.8151 43.4874 23.4257C43.1092 23.0428 42.6112 22.8385 42.0565 22.8385H36.5347V19.864H41.0354C41.5838 19.864 42.0565 19.6917 42.441 19.347C42.8381 18.9896 43.0524 18.5045 43.0524 17.9364C43.0524 17.3683 42.8444 16.864 42.4599 16.4938C42.0754 16.13 41.5964 15.9385 41.0417 15.9385H36.541V13.3087H42.0628L42.0439 13.3279Z" fill="#FFA552"/>
<path d="M49.7024 7.55745C51.1819 7.55745 52.3813 5.86566 52.3813 3.77872C52.3813 1.69179 51.1819 0 49.7024 0C48.2228 0 47.0234 1.69179 47.0234 3.77872C47.0234 5.86566 48.2228 7.55745 49.7024 7.55745Z" fill="#FFA552"/>
<path d="M63.425 7.55745C64.9046 7.55745 66.104 5.86566 66.104 3.77872C66.104 1.69179 64.9046 0 63.425 0C61.9455 0 60.7461 1.69179 60.7461 3.77872C60.7461 5.86566 61.9455 7.55745 63.425 7.55745Z" fill="#FFA552"/>
<path d="M50.434 11.7064C51.1085 15.5618 51.8649 19.9086 53.4533 23.3681C53.2516 23.1958 53.1256 23.1001 52.6717 23.0171C52.1927 22.9852 51.9909 23.0618 51.7262 23.2341C53.094 21.2107 54.2224 17.6873 55.0922 15.0256C55.3885 14.1064 56.3592 13.6022 57.2669 13.8958C57.8468 14.0873 58.2628 14.566 58.4078 15.1213C58.8806 16.9852 59.4227 18.9064 60.0971 20.6681C60.5006 21.6703 60.8725 22.6533 61.4398 23.3362C61.3578 23.266 61.175 23.1384 60.8031 23.1192C60.5195 23.0809 60.0782 23.2596 59.9017 23.4128C61.5091 19.9469 61.9756 15.7086 62.4357 11.9043C62.94 8.22772 68.2475 9.23623 67.3902 12.8554C66.514 15.8618 65.7009 18.7788 64.6923 21.7405C64.207 23.0362 63.7531 24.5043 62.8013 25.749C61.3137 27.6447 59.1201 26.8277 58.1431 24.9958C56.5546 22.0469 55.8928 19.0852 55.0607 15.9384L58.3763 16.0405C57.4056 19.0852 56.5735 21.9703 55.0166 24.8426C53.5479 27.4852 51.0833 27.2809 49.8541 24.549C48.2467 21.1916 46.9356 16.3533 45.7506 12.8171C44.8366 9.45326 49.7532 8.2724 50.4277 11.7001L50.434 11.7064Z" fill="#FFA552"/>
</g>
<defs>
<clipPath id="clip0_4169_1146">
<rect width="104" height="27" fill="white"/>
</clipPath>
</defs>
</svg>
