<svg width="20" height="23" viewBox="0 0 20 23" fill="none" xmlns="http://www.w3.org/2000/svg">
<path d="M9.99453 0.64502C14.4031 0.64502 18.0361 3.91402 18.3721 8.14202L18.3917 8.45422L18.3973 8.76782L18.3959 13.8022L19.6909 16.913C19.7227 16.9886 19.7474 17.0666 19.7651 17.1468L19.7875 17.2672L19.7987 17.452C19.7972 17.761 19.6935 18.0607 19.5038 18.3046C19.3142 18.5484 19.0492 18.7227 18.7501 18.8002L18.5877 18.838L18.3987 18.852L13.4973 18.8506L13.4903 19.076C13.4341 19.9642 13.0416 20.7976 12.3927 21.4067C11.7438 22.0158 10.8873 22.3548 9.99733 22.3548C9.10737 22.3548 8.25084 22.0158 7.60195 21.4067C6.95307 20.7976 6.56059 19.9642 6.50433 19.076L6.49733 18.8506H1.59593C1.47303 18.8508 1.35065 18.8348 1.23193 18.803L1.05833 18.7442C0.77572 18.6251 0.54005 18.4165 0.387535 18.1504C0.235019 17.8843 0.174096 17.5755 0.214128 17.2714L0.243528 17.0922L0.303728 16.913L1.59593 13.8064L1.59733 8.75522L1.60293 8.44022C1.77513 4.07642 5.47673 0.64502 9.99453 0.64502ZM12.0973 18.8506H7.89733L7.90713 19.048C7.95423 19.5328 8.16838 19.9861 8.51291 20.3304C8.85744 20.6747 9.31092 20.8885 9.79573 20.9352L9.99733 20.945C10.5191 20.945 11.0223 20.7508 11.4087 20.4001C11.7951 20.0494 12.0371 19.5674 12.0875 19.048L12.0973 18.8506ZM9.99453 2.04502C6.32233 2.04502 3.31653 4.73862 3.02253 8.18402L3.00293 8.48082L2.99733 8.76782V13.945L2.94413 14.2138L1.59593 17.452L18.3371 17.4548L18.4001 17.452L17.0505 14.2138L16.9973 13.945V8.78182L16.9917 8.49622C16.8447 4.89402 13.7703 2.04502 9.99453 2.04502Z" fill="#C64508"/>
</svg>
