<svg width="24" height="25" viewBox="0 0 24 25" fill="none" xmlns="http://www.w3.org/2000/svg">
<mask id="mask0_4273_797" style="mask-type:alpha" maskUnits="userSpaceOnUse" x="0" y="0" width="24" height="25">
<rect y="0.5" width="24" height="24" fill="#D9D9D9"/>
</mask>
<g mask="url(#mask0_4273_797)">
<path d="M9.725 12.9879L17.075 20.3379C17.325 20.5879 17.4458 20.8796 17.4375 21.2129C17.4292 21.5462 17.3 21.8379 17.05 22.0879C16.8 22.3379 16.5083 22.4629 16.175 22.4629C15.8417 22.4629 15.55 22.3379 15.3 22.0879L7.6 14.4129C7.4 14.2129 7.25 13.9879 7.15 13.7379C7.05 13.4879 7 13.2379 7 12.9879C7 12.7379 7.05 12.4879 7.15 12.2379C7.25 11.9879 7.4 11.7629 7.6 11.5629L15.3 3.8629C15.55 3.6129 15.8458 3.49207 16.1875 3.5004C16.5292 3.50874 16.825 3.6379 17.075 3.8879C17.325 4.1379 17.45 4.42957 17.45 4.7629C17.45 5.09624 17.325 5.3879 17.075 5.6379L9.725 12.9879Z" fill="#C64508"/>
</g>
</svg>
