<svg width="24" height="24" viewBox="0 0 24 24" fill="none" xmlns="http://www.w3.org/2000/svg">
<path d="M12.0011 3C11.3191 3 10.6651 3.27092 10.1828 3.75315C9.7006 4.23539 9.42969 4.88944 9.42969 5.57143V12.4286C9.42969 13.1106 9.7006 13.7646 10.1828 14.2468C10.6651 14.7291 11.3191 15 12.0011 15C12.6831 15 13.3372 14.7291 13.8194 14.2468C14.3016 13.7646 14.5725 13.1106 14.5725 12.4286V5.57143C14.5725 4.88944 14.3016 4.23539 13.8194 3.75315C13.3372 3.27092 12.6831 3 12.0011 3Z" stroke="#C64508" stroke-width="1.8" stroke-linecap="round" stroke-linejoin="round"/>
<path d="M18 10.7139V12.4282C18 14.0195 17.3679 15.5456 16.2426 16.6708C15.1174 17.796 13.5913 18.4282 12 18.4282C10.4087 18.4282 8.88258 17.796 7.75736 16.6708C6.63214 15.5456 6 14.0195 6 12.4282V10.7139" stroke="#C64508" stroke-width="1.8" stroke-linecap="round" stroke-linejoin="round"/>
<path d="M12 18.4287V21.8573" stroke="#C64508" stroke-width="1.8" stroke-linecap="round" stroke-linejoin="round"/>
<path d="M8.57031 21.8569H15.4275" stroke="#C64508" stroke-width="1.8" stroke-linecap="round" stroke-linejoin="round"/>
</svg>
