<svg width="24" height="24" viewBox="0 0 24 24" fill="none" xmlns="http://www.w3.org/2000/svg">
<path d="M17 16.6667C17 16.8508 16.8508 17 16.6667 17C16.4826 17 16.3333 16.8508 16.3333 16.6667C16.3333 13.7706 15.6714 11.1622 14.6185 9.28971C13.5597 7.40675 12.1494 6.33333 10.6667 6.33333C9.16565 6.33333 7.75677 7.30378 6.70638 8.97786C5.65883 10.6475 5.00001 12.9751 5 15.5631C5 15.7472 4.85076 15.8965 4.66667 15.8965C4.48257 15.8965 4.33333 15.7472 4.33333 15.5631C4.33334 12.8697 5.01792 10.4152 6.14193 8.6237C7.26309 6.83683 8.85411 5.66666 10.6667 5.66666C12.4976 5.66667 14.0871 6.98397 15.1999 8.96289C16.3186 10.9524 17 13.6777 17 16.6667Z" fill="black"/>
<path d="M11.024 8.20974C11.0923 8.03881 11.286 7.95582 11.4569 8.0242C11.762 8.14623 12.2382 8.39428 12.7095 8.75141C13.1206 9.06294 13.545 9.47021 13.8443 9.96625L13.9647 10.1844L13.9888 10.2475C14.0289 10.3972 13.9597 10.5596 13.8156 10.6316C13.6717 10.7036 13.5006 10.6615 13.4048 10.5398L13.3684 10.4825L13.2726 10.3087C13.0323 9.91104 12.6785 9.56406 12.3072 9.28266C11.884 8.96201 11.46 8.74287 11.2095 8.64268C11.0386 8.57431 10.9556 8.38067 11.024 8.20974Z" fill="black"/>
<path d="M15.9749 4.06553C15.6432 4.17126 15.4572 4.28792 15.2057 4.53949C14.9359 4.80928 14.7937 5.07178 14.7135 5.4473C14.6515 5.75355 14.6515 5.8848 14.7135 6.19105C14.7937 6.56657 14.9359 6.82907 15.2057 7.09886C15.5812 7.47438 15.9822 7.64209 16.4999 7.64209C16.664 7.64209 16.8791 7.62021 16.9812 7.59105C17.7577 7.38324 18.3447 6.62126 18.3447 5.81917C18.3447 5.0098 17.7614 4.25511 16.9775 4.0473C16.7187 3.97803 16.2192 3.98532 15.9749 4.06553Z" fill="#FFA552"/>
<path d="M19.667 15.3334C19.667 15.5175 19.5178 15.6667 19.3337 15.6667C19.1496 15.6667 19.0003 15.5175 19.0003 15.3334C19.0003 13.5525 18.4944 11.9545 17.6937 10.8106C16.9423 9.73728 15.9505 9.08525 14.8818 9.00789L14.667 9.00008L14.5999 8.99357C14.448 8.96255 14.3337 8.82789 14.3337 8.66675C14.3337 8.50561 14.448 8.37094 14.5999 8.33993L14.667 8.33341L14.9326 8.34318C16.2501 8.43869 17.4079 9.23982 18.2399 10.4285C19.1281 11.6974 19.667 13.4325 19.667 15.3334Z" fill="black"/>
<path d="M7.2428 14.4911C9.09056 14.1707 11.2609 14.2899 13.1959 15.3153C15.2974 16.4289 16.7666 16.4858 17.8561 16.1604C18.9653 15.8289 19.7372 15.0899 20.4446 14.4585C20.582 14.3359 20.7927 14.3479 20.9153 14.4852C21.0379 14.6226 21.026 14.8333 20.8886 14.9559C20.2095 15.5621 19.3253 16.417 18.0468 16.799C16.7483 17.187 15.097 17.0771 12.8841 15.9045C11.1125 14.9657 9.10026 14.8457 7.35673 15.148C5.59927 15.4527 4.18182 16.1737 3.58069 16.8387L3.33329 16.6148L3.08589 16.3915C3.82607 15.5726 5.40891 14.8091 7.2428 14.4911ZM3.58069 16.8387C3.45725 16.9753 3.24654 16.9856 3.10998 16.8622C2.97342 16.7387 2.96247 16.528 3.08589 16.3915L3.58069 16.8387Z" fill="black"/>
<path d="M5.5612 18.7767C5.42694 18.9026 5.21643 18.896 5.0905 18.7617C4.96459 18.6275 4.97126 18.417 5.10547 18.291C5.77932 17.6592 6.70537 16.8684 7.97591 16.517C9.26004 16.1618 10.8479 16.2673 12.8242 17.3288C12.9864 17.4159 13.0474 17.6178 12.9603 17.78C12.8732 17.942 12.6712 18.0029 12.5091 17.916C10.6578 16.9217 9.24587 16.8575 8.15365 17.1595C7.04783 17.4654 6.22067 18.1583 5.5612 18.7767Z" fill="black"/>
<path d="M8.33398 14.6668V12.6668C8.33398 12.4827 8.48322 12.3335 8.66732 12.3335C8.85141 12.3335 9.00065 12.4827 9.00065 12.6668V14.6668C9.00065 14.8509 8.85141 15.0002 8.66732 15.0002C8.48322 15.0002 8.33398 14.8509 8.33398 14.6668Z" fill="black"/>
<path d="M8.33331 10.4714L7.56899 11.2357C7.43881 11.3659 7.22781 11.3659 7.09763 11.2357C6.96746 11.1056 6.96746 10.8946 7.09763 10.7644L8.43096 9.43105L8.48305 9.38808C8.61243 9.30263 8.78841 9.31714 8.90232 9.43105L10.2357 10.7644L10.2786 10.8165C10.3641 10.9458 10.3496 11.1218 10.2357 11.2357C10.1217 11.3496 9.94577 11.3641 9.81638 11.2787L9.7643 11.2357L8.99997 10.4714V11.862L10.2357 13.0977L10.2786 13.1498C10.3641 13.2792 10.3496 13.4552 10.2357 13.5691C10.1217 13.683 9.94577 13.6975 9.81638 13.612L9.7643 13.5691L8.66664 12.4714L7.56899 13.5691C7.43881 13.6992 7.22781 13.6992 7.09763 13.5691C6.96746 13.4389 6.96746 13.2279 7.09763 13.0977L8.33331 11.862V10.4714Z" fill="black"/>
</svg>
