<svg width="24" height="24" viewBox="0 0 24 24" fill="none" xmlns="http://www.w3.org/2000/svg">
<g clip-path="url(#clip0_6001_1295)">
<path d="M12.5963 2.75097C12.5307 2.82128 12.5166 2.94315 12.5166 3.42128C12.5166 3.74003 12.5354 4.02597 12.5541 4.05409C12.6713 4.2369 12.976 4.22284 13.0744 4.03065C13.1025 3.97909 13.126 3.70722 13.126 3.42597C13.126 2.98065 13.1119 2.89628 13.0275 2.78847C12.915 2.64315 12.7088 2.6244 12.5963 2.75097Z" fill="black"/>
<path d="M6.11832 5.45557C5.98238 5.58682 5.97769 5.62432 6.06676 5.79775C6.17457 6.00869 6.83082 6.604 6.95269 6.604C7.13082 6.604 7.26676 6.47744 7.26676 6.304C7.26676 6.17275 7.20582 6.09307 6.84957 5.74619C6.39957 5.30088 6.30582 5.26338 6.11832 5.45557Z" fill="black"/>
<path d="M3.44601 11.9243C3.30539 12.0603 3.29601 12.1821 3.41789 12.3274C3.50226 12.4353 3.53507 12.4399 4.10226 12.4399C4.66945 12.4399 4.70226 12.4353 4.78664 12.3274C4.90851 12.1821 4.89914 12.0603 4.75851 11.9243C4.6507 11.8118 4.61789 11.8071 4.10226 11.8071C3.58664 11.8071 3.55382 11.8118 3.44601 11.9243Z" fill="black"/>
<path d="M18.3291 11.2186C18.3291 8.08897 15.792 5.55192 12.6624 5.55192C9.53282 5.55192 6.99577 8.08897 6.99577 11.2186C6.99577 13.6098 8.47701 15.657 10.5745 16.4888C10.8811 16.6103 11.1436 16.8335 11.3434 17.0246C11.5459 17.2182 11.7646 17.4603 11.9398 17.6437C12.1319 17.8448 12.2938 18.0007 12.4404 18.106C12.591 18.214 12.6572 18.2186 12.6624 18.2186V18.8853C11.8641 18.8853 11.1003 17.4861 10.3968 17.1385L10.3291 17.1086C7.98602 16.1795 6.3291 13.8924 6.3291 11.2186C6.3291 7.72078 9.16463 4.88525 12.6624 4.88525C16.1602 4.88525 18.9958 7.72078 18.9958 11.2186C18.9958 13.8924 17.3388 16.1795 14.9958 17.1086L14.9281 17.1385C14.2246 17.4861 13.4607 18.8853 12.6624 18.8853V18.2186C12.6676 18.2186 12.7339 18.214 12.8844 18.106C13.0311 18.0007 13.193 17.8448 13.3851 17.6437C13.5602 17.4603 13.779 17.2182 13.9814 17.0246C14.1812 16.8335 14.4437 16.6103 14.7503 16.4888C16.8479 15.657 18.3291 13.6098 18.3291 11.2186Z" fill="black"/>
<path d="M10.3291 18.5518C10.3291 17.9995 10.7768 17.5518 11.3291 17.5518H13.9958C14.5481 17.5518 14.9958 17.9995 14.9958 18.5518V18.5518C14.9958 19.104 14.5481 19.5518 13.9958 19.5518H11.3291C10.7768 19.5518 10.3291 19.104 10.3291 18.5518V18.5518Z" fill="white"/>
<path d="M13.9958 18.8851V19.5518H11.3291V18.8851H13.9958ZM14.3291 18.5518C14.3291 18.3677 14.1799 18.2184 13.9958 18.2184H11.3291C11.145 18.2184 10.9958 18.3677 10.9958 18.5518C10.9958 18.7359 11.145 18.8851 11.3291 18.8851V19.5518C10.7768 19.5518 10.3291 19.104 10.3291 18.5518C10.3291 17.9995 10.7768 17.5518 11.3291 17.5518H13.9958L14.098 17.557C14.6023 17.6082 14.9958 18.034 14.9958 18.5518C14.9958 19.0695 14.6023 19.4954 14.098 19.5465L13.9958 19.5518V18.8851C14.1799 18.8851 14.3291 18.7359 14.3291 18.5518Z" fill="black"/>
<path d="M11.9958 19.5518C11.9958 19.5897 12.0189 19.6649 12.1403 19.7458C12.2593 19.8251 12.4429 19.8851 12.6624 19.8851C12.8819 19.8851 13.0655 19.8251 13.1846 19.7458C13.3059 19.6649 13.3291 19.5897 13.3291 19.5518H13.9958C13.9958 19.882 13.7949 20.1401 13.5544 20.3005C13.3115 20.4624 12.9952 20.5518 12.6624 20.5518C12.3297 20.5518 12.0134 20.4624 11.7705 20.3005C11.5299 20.1401 11.3291 19.882 11.3291 19.5518H11.9958Z" fill="black"/>
<path d="M12.1006 8.96237C11.7603 9.07035 11.2293 9.57652 11.1 9.92071C10.923 10.3729 10.9775 11.068 11.2225 11.4325C11.9577 12.5325 13.5369 12.465 14.1427 11.311C14.4694 10.6901 14.3605 9.90721 13.8704 9.38755C13.4552 8.95562 12.6996 8.76665 12.1006 8.96237Z" fill="#FFA552"/>
<path d="M9.99609 11.5518C9.99609 11.3677 10.1453 11.2185 10.3294 11.2185C10.5135 11.2185 10.6628 11.3677 10.6628 11.5518C10.6628 12.426 11.5081 13.2185 12.6628 13.2185C13.8174 13.2185 14.6628 12.426 14.6628 11.5518C14.6628 11.3677 14.812 11.2185 14.9961 11.2185C15.1802 11.2185 15.3294 11.3677 15.3294 11.5518C15.3294 12.8869 14.0855 13.8852 12.6628 13.8852C11.2401 13.8852 9.99609 12.8869 9.99609 11.5518Z" fill="black"/>
<path d="M12.9958 13.5518L12.9958 17.5518L12.3291 17.5518L12.3291 13.5518L12.9958 13.5518Z" fill="black"/>
</g>
<defs>
<clipPath id="clip0_6001_1295">
<rect width="24" height="24" fill="white"/>
</clipPath>
</defs>
</svg>
